<svg width="1000" height="684" viewBox="0 0 1000 684" fill="none" xmlns="http://www.w3.org/2000/svg">
<g clip-path="url(#clip0_732_1206)">
<path d="M690.286 191.295C690.762 297.145 605.948 383.336 500.865 383.815C395.767 384.294 310.189 298.873 309.714 193.023C309.238 87.1721 394.051 0.981595 499.149 0.502436C604.233 0.0377971 689.81 85.4443 690.286 191.295Z" fill="#FFE866"/>
<path d="M596.504 123.577C582.693 119.555 568.392 113.834 553.889 108.069C553.052 104.41 549.838 99.8511 543.321 94.2609C533.849 85.9845 516.059 86.2023 500.691 89.8613C483.722 85.8393 466.956 84.4018 450.867 88.2932C319.3 124.811 393.892 213.862 345.582 303.407C352.458 318.086 428.304 388.615 533.748 380.783C533.748 380.783 497.087 292.052 579.824 249.45C646.934 214.907 695.417 150.758 596.49 123.562L596.504 123.577Z" fill="#4BCC00"/>
<path d="M497.911 89.3236C509.69 94.0316 551.866 109.019 570.477 114.643C549.425 84.3712 521.621 85.466 497.911 89.3236Z" fill="#35AF00"/>
<path d="M509.802 144.926C509.802 165.4 493.323 181.981 473.01 181.981C452.697 181.981 436.219 165.4 436.219 144.926C436.219 124.453 452.697 107.886 473.01 107.886C493.323 107.886 509.802 124.468 509.802 144.926Z" fill="white"/>
<path d="M642.553 198.255C612.754 219.41 578.831 235.455 530.751 235.455C508.247 235.455 503.677 211.366 488.799 223.171C481.115 229.269 454.04 242.904 432.545 241.873C410.862 240.827 376.247 228.137 366.516 181.949C362.667 228.137 360.706 262.172 343.478 301.172C385.769 363.326 459.506 394.248 533.75 380.8C525.778 324.709 574.448 269.78 601.869 241.669C612.249 231.026 632.144 213.646 642.553 198.255Z" fill="#4BCC00"/>
<ellipse cx="488.518" cy="144.673" rx="21.5896" ry="30.2254" fill="#0D1217"/>
<path d="M488.521 144.67L462.614 127.398V161.942L488.521 144.67Z" fill="white"/>
</g>
<g clip-path="url(#clip1_732_1206)">
<path d="M941.777 531.751C958.018 531.751 971.114 536.725 981.063 546.675C991.159 556.478 996.207 569.208 996.207 584.864C996.207 600.52 991.159 613.323 981.063 623.273C971.114 633.076 958.018 637.978 941.777 637.978C925.389 637.978 912.147 633.076 902.051 623.273C892.102 613.323 887.127 600.52 887.127 584.864C887.127 569.208 892.102 556.478 902.051 546.675C912.147 536.725 925.389 531.751 941.777 531.751ZM924.219 605.495C928.608 610.763 934.461 613.396 941.777 613.396C949.093 613.396 954.872 610.763 959.116 605.495C963.505 600.228 965.7 593.351 965.7 584.864C965.7 576.378 963.505 569.501 959.116 564.233C954.872 558.966 949.093 556.332 941.777 556.332C934.461 556.332 928.608 558.966 924.219 564.233C919.829 569.501 917.634 576.378 917.634 584.864C917.634 593.351 919.829 600.228 924.219 605.495Z" fill="#0D1217"/>
<path d="M710.275 531.751C723.59 531.751 734.125 535.262 741.88 542.285C749.781 549.162 753.732 557.795 753.732 568.184L753.074 575.866L726.517 577.402C726.809 576.817 726.956 575.28 726.956 572.793C726.956 568.111 725.419 564.233 722.347 561.161C719.42 557.942 715.25 556.332 709.836 556.332C702.96 556.332 697.399 558.893 693.156 564.014C689.059 569.135 687.011 575.866 687.011 584.206C687.011 593.277 689.279 600.447 693.815 605.715C698.497 610.836 705.154 613.396 713.787 613.396C726.078 613.396 735.515 609.372 742.1 601.325L756.805 620.2C753 625.029 747.221 629.199 739.466 632.71C731.711 636.222 722.493 637.978 711.812 637.978C694.693 637.978 681.158 633.149 671.208 623.492C661.405 613.689 656.503 600.959 656.503 585.303C656.503 569.354 661.478 556.478 671.428 546.675C681.378 536.725 694.327 531.751 710.275 531.751Z" fill="#0D1217"/>
<path d="M600.885 615.152C611.566 615.152 620.492 611.201 627.661 603.3L641.927 619.761C637.977 624.882 632.124 629.199 624.369 632.71C616.76 636.222 607.762 637.978 597.373 637.978C580.254 637.978 566.646 633.076 556.55 623.273C546.601 613.469 541.626 600.667 541.626 584.864C541.626 569.208 546.454 556.478 556.111 546.675C565.769 536.725 578.571 531.751 594.52 531.751C609.298 531.751 620.931 536.286 629.417 545.358C637.904 554.43 642.147 566.209 642.147 580.694L641.269 591.668H571.475C572.792 598.838 575.938 604.544 580.912 608.787C585.887 613.03 592.545 615.152 600.885 615.152ZM594.52 554.576C588.521 554.576 583.4 556.478 579.157 560.283C575.06 563.941 572.499 569.208 571.475 576.085H614.712C614.566 569.793 612.664 564.672 609.006 560.722C605.494 556.625 600.665 554.576 594.52 554.576Z" fill="#0D1217"/>
<path d="M498.599 533.067H522.303V632.71C522.303 647.927 517.035 660.145 506.5 669.363C495.965 678.581 481.846 683.19 464.141 683.19C445.266 683.19 429.756 679.093 417.612 670.899L420.615 650.174C430.125 657.344 450.46 659.048 463.483 659.048C472.262 659.048 479.212 656.853 484.333 652.463C489.6 648.22 492.234 641.928 492.234 633.588V620.858C485.503 630.662 475.115 635.563 461.068 635.563C447.314 635.563 436.048 631.028 427.269 621.956C418.49 612.738 414.1 599.935 414.1 583.547C414.1 567.891 418.27 555.381 426.61 546.017C434.95 536.506 446.217 531.751 460.41 531.751C476.944 531.751 488.284 538.701 494.429 552.601H495.087C494.941 550.991 495.234 548.065 495.965 543.822C496.697 539.579 497.575 535.994 498.599 533.067ZM468.531 610.324C475.7 610.324 481.407 607.836 485.65 602.861C490.039 597.74 492.234 592.107 492.234 585.962V581.353C492.234 574.768 490.039 569.062 485.65 564.233C481.26 559.405 475.334 556.99 467.872 556.99C460.849 556.99 455.216 559.405 450.972 564.233C446.729 569.062 444.607 575.5 444.607 583.547C444.607 591.741 446.729 598.252 450.972 603.081C455.362 607.909 461.215 610.324 468.531 610.324Z" fill="#0D1217"/>
<path d="M356.726 531.751C369.164 531.751 378.674 535.555 385.259 543.163C391.989 550.772 395.355 560.722 395.355 573.012V636.661H365.286V578.28C365.286 571.988 363.677 567.013 360.458 563.355C357.385 559.551 352.922 557.649 347.069 557.649C339.9 557.649 334.413 560.209 330.609 565.331C326.951 570.452 325.122 576.378 325.122 583.108V636.661H295.053V533.067L318.537 532.19C321.025 539.944 322.268 547.187 322.268 553.918H323.146C329.145 539.14 340.339 531.751 356.726 531.751Z" fill="#0D1217"/>
<path d="M274.856 499.925C274.856 505.339 272.954 509.802 269.15 513.314C265.346 516.825 260.737 518.581 255.323 518.581C249.909 518.581 245.3 516.825 241.496 513.314C237.838 509.802 236.009 505.339 236.009 499.925C236.009 494.658 237.838 490.268 241.496 486.757C245.3 483.099 249.909 481.27 255.323 481.27C260.737 481.27 265.346 483.099 269.15 486.757C272.954 490.268 274.856 494.658 274.856 499.925ZM240.179 636.66V533.066L270.247 532.189V636.66H240.179Z" fill="#0D1217"/>
<path d="M166.532 531.751C182.773 531.751 195.869 536.725 205.819 546.675C215.915 556.478 220.962 569.208 220.962 584.864C220.962 600.52 215.915 613.323 205.819 623.273C195.869 633.076 182.773 637.978 166.532 637.978C150.144 637.978 136.903 633.076 126.807 623.273C116.857 613.323 111.882 600.52 111.882 584.864C111.882 569.208 116.857 556.478 126.807 546.675C136.903 536.725 150.144 531.751 166.532 531.751ZM148.974 605.495C153.363 610.763 159.216 613.396 166.532 613.396C173.848 613.396 179.628 610.763 183.871 605.495C188.26 600.228 190.455 593.351 190.455 584.864C190.455 576.378 188.26 569.501 183.871 564.233C179.628 558.966 173.848 556.332 166.532 556.332C159.216 556.332 153.363 558.966 148.974 564.233C144.584 569.501 142.389 576.378 142.389 584.864C142.389 593.351 144.584 600.228 148.974 605.495Z" fill="#0D1217"/>
<path d="M53.772 531.751C67.087 531.751 77.6219 535.262 85.3768 542.285C93.278 549.162 97.2286 557.795 97.2286 568.184L96.5702 575.866L70.0134 577.402C70.306 576.817 70.4523 575.28 70.4523 572.793C70.4523 568.111 68.916 564.233 65.8433 561.161C62.9169 557.942 58.7469 556.332 53.3331 556.332C46.4561 556.332 40.896 558.893 36.6528 564.014C32.5559 569.135 30.5074 575.866 30.5074 584.206C30.5074 593.277 32.7753 600.447 37.3112 605.715C41.9934 610.836 48.6509 613.396 57.2837 613.396C69.5744 613.396 79.012 609.372 85.5963 601.325L100.301 620.2C96.497 625.029 90.7174 629.199 82.9626 632.71C75.2077 636.222 65.9896 637.978 55.3084 637.978C38.1891 637.978 24.6547 633.149 14.705 623.492C4.90167 613.689 0 600.959 0 585.303C0 569.354 4.97483 556.478 14.9245 546.675C24.8741 536.725 37.8233 531.751 53.772 531.751Z" fill="#0D1217"/>
<path d="M850.103 590.545C856.336 601.458 862.561 610.337 869.046 619.585C871.859 623.598 874.721 627.68 877.654 632.027C881.38 637.552 876.548 644.172 870.39 641.624C846.379 631.69 828.838 612.998 816.821 595.401H803.942V636.662H773.874V481.711H803.942V571.916H816.672C824.866 571.916 831.304 569.429 835.986 564.454C840.668 559.479 843.009 552.383 843.009 543.165C843.009 540.824 842.717 537.458 842.132 533.069H870.883C871.615 536.434 871.981 540.019 871.981 543.823C871.981 564.202 862.882 581.662 850.103 590.545Z" fill="#0D1217"/>
</g>
<defs>
<clipPath id="clip0_732_1206">
<rect width="380.576" height="384.615" fill="white" transform="translate(309.712 0.500549)"/>
</clipPath>
<clipPath id="clip1_732_1206">
<rect width="1000" height="201.923" fill="white" transform="translate(0 481.27)"/>
</clipPath>
</defs>
</svg>
